inDegrees=yes
name=lift_forw_l_res.mot
DataType=double
version=3
OpenSimVersion=4.4-2022-07-23-0e9fedc
endheader
time	pelvis_tilt	pelvis_list	pelvis_rotation	pelvis_tx	pelvis_ty	pelvis_tz	hip_flexion_r	hip_adduction_r	hip_rotation_r	knee_angle_r	knee_angle_r_beta	ankle_angle_r	subtalar_angle_r	mtp_angle_r	hip_flexion_l	hip_adduction_l	hip_rotation_l	knee_angle_l	knee_angle_l_beta	ankle_angle_l	subtalar_angle_l	mtp_angle_l	lumbar_extension	lumbar_bending	lumbar_rotation	arm_flex_r	arm_add_r	arm_rot_r	elbow_flex_r	pro_sup_r	wrist_flex_r	wrist_dev_r	arm_flex_l	arm_add_l	arm_rot_l	elbow_flex_l	pro_sup_l	wrist_flex_l	wrist_dev_l
75	-0.9375699308655993	0.1806278648889018	88.83499742998762	0	0.9399999999999999	0	44.24612687664344	-10.0141882847289	0	59.86114245098648	1.044774029775063	-5.002131070986455	0	0	44.24612687664344	-10.0141882847289	0	59.86114245098648	1.044774029775063	-5.002131070986455	0	0	-0.8470809108000842	-2.750881746229552	0.710283562553832	0	-12.82297143092072	0	75.65707962179546	45.05614737091309	0	0	44.26239065277707	-12.71177577142995	19.57328780003498	20.13481736662112	45.05614737091309	0	0
76	-0.9212955928179718	0.1804793735645983	88.83286947597662	0	0.9399999999999999	0	44.24651370989437	-10.01416277172866	0	59.86119827611676	1.044775004107391	-5.002126069443777	0	0	44.24651370989437	-10.01416277172866	0	59.86119827611676	1.044775004107391	-5.002126069443777	0	0	-0.8387944704110609	-2.731311479314818	0.7053907324173102	0	-12.82354241593717	0	75.65674255599741	45.05606754715829	0	0	43.36991839472025	-12.20141176919611	19.48590756416738	20.6810679129154	45.05606754715829	0	0
77	-0.925815206802693	0.1851445994730386	88.83874936771478	0	0.9399999999999999	0	44.2467902810732	-10.01414456150366	0	59.86123821298681	1.044775701137266	-5.002122501562393	0	0	44.2467902810732	-10.01414456150366	0	59.86123821298681	1.044775701137266	-5.002122501562393	0	0	-0.8654203250827244	-2.731495708474346	0.6988683411455122	0	-12.82395088167709	0	75.6565015666549	45.05601054811638	0	0	43.14505034977907	-12.41355910471355	18.74113254546315	21.09130309393461	45.05601054811638	0	0
78	-0.9275629671919908	0.1884295549565193	88.81705326315542	0	0.9399999999999999	0	44.25445846071273	-10.01380302817737	0	59.86265038747615	1.044800348231718	-5.002061369566557	0	0	44.25445846071273	-10.01380302817737	0	59.86265038747615	1.044800348231718	-5.002061369566557	0	0	-0.8596788518444716	-2.739923055523105	0.7381586472003564	0	-12.83748484973498	0	75.64981982398595	45.05485482757253	0	0	38.92943596728352	-11.91030072436742	17.70825306255722	24.77813244784644	45.05485482757253	0	0
79	-0.9275755002450867	0.1727228267265266	88.83771585715908	0	0.9399999999999999	0	44.25711737916753	-10.01367947885885	0	59.86313262678602	1.044808764895458	-5.002038944382404	0	0	44.25711737916753	-10.01367947885885	0	59.86313262678602	1.044808764895458	-5.002038944382404	0	0	-0.8239192678138358	-2.733812417982902	0.7001977304392343	0	-12.84212137562132	0	75.64750295219355	45.05444116970626	0	0	36.2791761854001	-12.01716099393	17.00265946212146	21.59771308807901	45.05444116970626	0	0
80	-0.9228809364236527	0.1805326582521228	88.8311663532084	0	0.9399999999999999	0	44.26626769692866	-10.01326747826122	0	59.86481509657509	1.044838129532842	-5.001964847917846	0	0	44.26626769692866	-10.01326747826122	0	59.86481509657509	1.044838129532842	-5.001964847917846	0	0	-0.8417337928423724	-2.723088915623687	0.708295018242897	0	-12.85825566341784	0	75.63952973498601	45.05305171944313	0	0	29.94261343847256	-11.16416855817256	14.31325448364758	21.42485003914091	45.05305171944313	0	0
81	-0.9282075568455914	0.1828633688205356	88.8261565580279	0	0.9399999999999999	0	44.27447217604463	-10.01290821139285	0	59.86632429024743	1.044864469931475	-5.001900875136721	0	0	44.27447217604463	-10.01290821139285	0	59.86632429024743	1.044864469931475	-5.001900875136721	0	0	-0.8571193160870513	-2.721555435557239	0.7189117052978558	0	-12.87282268199098	0	75.63238067893722	45.0518311690964	0	0	23.55636771864141	-9.654741926395841	11.66535173766589	22.65531420404182	45.0518311690964	0	0
82	-0.9174662774336485	0.1816638643231294	88.82830300932382	0	0.9399999999999999	0	44.28052418826535	-10.0126442618424	0	59.86743453298291	1.044883847322706	-5.001853945358885	0	0	44.28052418826535	-10.0126442618424	0	59.86743453298291	1.044883847322706	-5.001853945358885	0	0	-0.8528561226535204	-2.708711844073859	0.7151366487045568	0	-12.88358042092525	0	75.62710719623193	45.05093350217441	0	0	18.21755002223798	-7.62408381426235	9.736272588634414	21.79161797794117	45.05093350217441	0	0
83	-0.9109309633460645	0.1841374121782281	88.84127603455434	0	0.9399999999999999	0	44.28564009484987	-10.01242031335983	0	59.86836828199581	1.044900144317368	-5.001814103319577	0	0	44.28564009484987	-10.01242031335983	0	59.86836828199581	1.044900144317368	-5.001814103319577	0	0	-0.8467263288265527	-2.721826104326712	0.7041119072711626	0	-12.89265976702437	0	75.62264939931076	45.0501723883653	0	0	13.29503392363031	-5.938780665992194	7.58903856516396	19.81558777649852	45.0501723883653	0	0
84	-0.9342343846990696	0.1723413449965722	88.82791155086358	0	0.9399999999999999	0	44.28816468297516	-10.01230967976544	0	59.86882515724003	1.04490811829465	-5.00179444280089	0	0	44.28816468297516	-10.01230967976544	0	59.86882515724003	1.04490811829465	-5.00179444280089	0	0	-0.8372326256734728	-2.750470839530689	0.720681684785058	0	-12.89712938799181	0	75.6204495743353	45.04979621304369	0	0	10.19873301601402	-4.790633177874524	5.176866037725728	16.20471426163832	45.04979621304369	0	0
85	-0.9346807416444504	0.1581699434279943	88.82083032366681	0	0.9399999999999999	0	44.28940303031961	-10.01225045085993	0	59.86904315943001	1.044911923150642	-5.001783640071539	0	0	44.28940303031961	-10.01225045085993	0	59.86904315943001	1.044911923150642	-5.001783640071539	0	0	-0.7953883837026646	-2.74679685900082	0.7296876541703274	0	-12.89926193532791	0	75.61937053049994	45.0495989452029	0	0	8.428130531945264	-4.953649644685307	3.245514505109826	11.55609752808199	45.0495989452029	0	0
86	-0.9306072816974965	0.1734082283361183	88.82429872052514	0	0.9399999999999999	0	44.29083262396546	-10.01218378862162	0	59.86929699639609	1.044916353441463	-5.00177157001711	0	0	44.29083262396546	-10.01218378862162	0	59.86929699639609	1.044916353441463	-5.00177157001711	0	0	-0.849934404109681	-2.738726508037227	0.7260942817924938	0	-12.9017451028847	0	75.61812484179835	45.04937561873119	0	0	6.296068938193416	-5.025996871727916	1.665813943711645	9.315887754950248	45.04937561873119	0	0
87	-0.3826979208403231	0.5329758282306964	89.72505063063085	0	0.9399999999999999	0	44.29141435295635	-10.01215306449209	0	59.86939332818062	1.044918034748278	-5.001765847038639	0	0	44.29141435295635	-10.01215306449209	0	59.86939332818062	1.044918034748278	-5.001765847038639	0	0	-1.221587078948395	-2.18434359711207	-0.176252619100955	0	-12.90270258886143	0	75.61761794935778	45.04927521769841	0	0	5.468186495377959	-4.416642837580067	0.5766611361081975	6.470836006311687	45.04927521769841	0	0
88	-0.3716553054628964	0.5403934739969671	89.71266043745366	0	0.9399999999999999	0	44.29203912325755	-10.01212193531737	0	59.86949962389852	1.044919889958536	-5.001760130859712	0	0	44.29203912325755	-10.01212193531737	0	59.86949962389852	1.044919889958536	-5.001760130859712	0	0	-1.249513332977597	-2.160113229280386	-0.1548495590707564	0	-12.90375568640214	0	75.61707355165464	45.04917225027479	0	0	4.258644977750129	-5.332495408461336	-0.6472735314315917	4.233778707368911	45.04917225027479	0	0
89	-0.9255672882469727	0.1842079329747996	88.83305552529426	0	0.9399999999999999	0	44.29486997892099	-10.01200207498376	0	59.87001382169025	1.044928864403008	-5.001739095832621	0	0	44.29486997892099	-10.01200207498376	0	59.87001382169025	1.044928864403008	-5.001739095832621	0	0	-0.8448442266889785	-2.732398096523221	0.7105889415685464	0	-12.90881078010715	0	75.61460685559022	45.04876095494959	0	0	2.456603166570505	-5.127167379462957	-1.271665010114439	4.343729495886472	45.04876095494959	0	0
90	-0.3768694993530426	0.5491265375066623	89.72637330021304	0	0.9399999999999999	0	44.29519714768594	-10.01198258596572	0	59.87006113036026	1.044929690095065	-5.001735410911676	0	0	44.29519714768594	-10.01198258596572	0	59.87006113036026	1.044929690095065	-5.001735410911676	0	0	-0.8440784441417098	-1.19368218075796	0.9552665374151593	0	-12.90930709310769	0	75.61432177707994	45.0486983399866	0	0	1.166058836586704	-1.899213982114507	0.06435739259259082	2.357722356344409	45.0486983399866	0	0
91	-0.3578587139636949	0.5443035359894544	89.7294021375677	0	0.9399999999999999	0	44.29544559946044	-10.01196778502425	0	59.87009703036251	1.044930316668305	-5.001732612980878	0	0	44.29544559946044	-10.01196778502425	0	59.87009703036251	1.044930316668305	-5.001732612980878	0	0	-0.8319606781601789	-1.171197079705815	0.9559139029770002	0	-12.90968384620656	0	75.614105288624	45.04865078237688	0	0	0.1834463363823514	-0.9582966989187736	0.006755509487913871	1.767753271646656	45.04865078237688	0	0
92	-0.3681207031932937	0.5508382579460224	89.73331023798852	0	0.9399999999999999	0	44.29589102310157	-10.01194371737183	0	59.87016959987135	1.044931583245171	-5.001728114798078	0	0	44.29589102310157	-10.01194371737183	0	59.87016959987135	1.044931583245171	-5.001728114798078	0	0	-0.8535944330806989	-1.181204955766843	0.9469126772253965	0	-12.91040807200428	0	75.61371716683612	45.04857242292788	0	0	-1.02460862922245	-1.886959455556632	0.3535602790461703	0.4732533841103119	45.04857242292788	0	0
93	-0.3935719776210021	0.5704712734722968	89.7512816225001	0	0.9399999999999999	0	44.29596189337977	-10.01193952995933	0	59.87017989248506	1.044931762885169	-5.001727324847195	0	0	44.29596189337977	-10.01193952995933	0	59.87017989248506	1.044931762885169	-5.001727324847195	0	0	-0.8652392739693502	-1.233875427717544	0.9038735458023348	0	-12.91051596473529	0	75.61365541399995	45.04855894549135	0	0	-1.187807712656374	-1.630555644777009	0.6727135312144996	0.3746465362710945	45.04855894549135	0	0
94	-0.3769101125319977	0.5522215616988784	89.72630310010007	0	0.9399999999999999	0	44.33300485707147	-10.01018635724909	0	59.87564149437902	1.045027085820652	-5.001423591193977	0	0	44.33300485707147	-10.01018635724909	0	59.87564149437902	1.045027085820652	-5.001423591193977	0	0	-0.8504249171744813	-1.195144958217286	0.9563831229727852	0	-12.96951345618581	0	75.58137781725338	45.04255643395628	0	0	-1.174945573053224	-1.603485296349862	0.706267143445904	0.3745361774588304	45.04255643395628	0	0
95	-0.3760188168363777	0.5480690172934031	89.72925100560215	0	0.9399999999999999	0	44.33318851091749	-10.01017653902568	0	59.87566835744081	1.045027554669527	-5.00142180044076	0	0	44.33318851091749	-10.01017653902568	0	59.87566835744081	1.045027554669527	-5.00142180044076	0	0	-0.8467546724848133	-1.191635063187797	0.9525921187534425	0	-12.96979943875941	0	75.58121778993763	45.04252399895644	0	0	-1.263809375318832	-0.9536541821837395	0.2268740937995069	0.4499468966869517	45.04252399895644	0	0
96	-0.3710173456570486	0.55577645693603	89.71780461335396	0	0.9399999999999999	0	44.33339087306187	-10.01016572393604	0	59.87569794826054	1.04502807112676	-5.001419828329963	0	0	44.33339087306187	-10.01016572393604	0	59.87569794826054	1.04502807112676	-5.001419828329963	0	0	-0.8549440506513523	-1.184682544798866	0.9728697401835937	0	-12.97011451839033	0	75.58104146109102	45.04248826571411	0	0	-1.151001172560494	-0.4394966200596688	0.9827920140160205	0.7565195075174279	45.04248826571411	0	0
